<svg xmlns="http://www.w3.org/2000/svg" width="15" height="15" viewBox="0 0 15 15">
    <g fill="none" fill-rule="evenodd">
        <g fill="#FFF" fill-rule="nonzero">
            <g>
                <path d="M78.5 225c1.029 0 1.996-.197 2.901-.59.906-.394 1.703-.935 2.392-1.625.69-.689 1.23-1.485 1.62-2.388.392-.902.587-1.868.587-2.897 0-1.029-.195-1.995-.586-2.897-.391-.903-.933-1.7-1.625-2.392s-1.49-1.234-2.395-1.625c-.906-.39-1.873-.586-2.902-.586-1.018 0-1.98.195-2.886.586-.905.391-1.703.933-2.395 1.625s-1.234 1.489-1.625 2.392c-.39.902-.586 1.868-.586 2.897 0 1.029.197 1.995.59 2.897.394.903.935 1.7 1.625 2.388.689.69 1.486 1.231 2.391 1.625.906.393 1.87.59 2.894.59zm0-1.381c-.844 0-1.636-.158-2.377-.475-.74-.316-1.39-.753-1.948-1.311-.558-.559-.994-1.208-1.308-1.949-.314-.74-.47-1.535-.47-2.384 0-.844.156-1.636.47-2.377.314-.74.75-1.391 1.308-1.952.558-.56 1.206-.999 1.945-1.315.738-.317 1.529-.475 2.372-.475.854 0 1.65.158 2.388.475.739.316 1.388.755 1.949 1.315.56.561.999 1.212 1.315 1.952.317.741.475 1.533.475 2.377.005.849-.152 1.644-.47 2.384-.32.741-.757 1.39-1.313 1.949-.555.558-1.203.995-1.944 1.311-.74.317-1.538.475-2.392.475zm-.795-2.647c.263 0 .47-.12.625-.362l3.318-5.178c.041-.077.081-.157.12-.24.038-.081.058-.164.058-.246 0-.17-.066-.307-.197-.413-.131-.105-.277-.158-.436-.158-.216 0-.399.118-.548.355l-2.963 4.738-1.389-1.79c-.087-.109-.176-.184-.266-.228-.09-.044-.186-.066-.29-.066-.174 0-.32.06-.435.182-.116.12-.174.266-.174.436 0 .159.062.318.185.478l1.744 2.13c.098.128.198.22.301.277.103.057.219.085.347.085z" transform="translate(-151 -4524) translate(80 4314)"/>
            </g>
        </g>
    </g>
</svg>
