<svg xmlns="http://www.w3.org/2000/svg" width="20" height="20" viewBox="0 0 20 20">
    <g fill="none" fill-rule="evenodd" opacity=".1">
        <g fill="#002137" fill-rule="nonzero">
            <g>
                <g>
                    <g>
                        <path d="M10 20c1.372 0 2.661-.262 3.868-.787 1.207-.525 2.27-1.247 3.19-2.166.919-.919 1.639-1.98 2.16-3.184C19.74 12.66 20 11.372 20 10c0-1.372-.26-2.66-.782-3.863-.521-1.204-1.243-2.267-2.166-3.19-.922-.922-1.987-1.644-3.194-2.165C12.651.26 11.361 0 9.99 0 8.632 0 7.35.26 6.142.782c-1.207.521-2.272 1.243-3.194 2.166-.923.922-1.645 1.985-2.166 3.189C.26 7.34 0 8.628 0 10c0 1.372.262 2.66.787 3.863.525 1.204 1.247 2.265 2.166 3.184.919.92 1.982 1.641 3.189 2.166C7.349 19.738 8.635 20 10 20zm-.01-8.858H5.01c-.205 0-.379-.07-.52-.21-.14-.142-.21-.315-.21-.52 0-.206.07-.38.21-.52.141-.14.315-.21.52-.21h4.26V3.95c0-.2.07-.369.21-.51.141-.14.31-.21.51-.21.212 0 .389.07.53.21.14.141.21.31.21.51v6.46c0 .206-.07.38-.21.52-.141.14-.318.211-.53.211z" transform="translate(-154 -1856) translate(150 1243) translate(0 116) translate(4 497)"/>
                    </g>
                </g>
            </g>
        </g>
    </g>
</svg>
