<svg xmlns="http://www.w3.org/2000/svg" width="18" height="18" viewBox="0 0 18 18">
    <g fill="none" fill-rule="evenodd">
        <g fill="#FFF" fill-rule="nonzero">
            <g>
                <g>
                    <g>
                        <path d="M9 18c1.235 0 2.395-.236 3.481-.708 1.087-.473 2.044-1.122 2.87-1.95.828-.827 1.476-1.782 1.945-2.865.47-1.083.704-2.242.704-3.477 0-1.235-.235-2.394-.704-3.477-.469-1.083-1.119-2.04-1.949-2.87-.83-.83-1.788-1.48-2.875-1.95C11.386.236 10.225 0 8.991 0 7.769 0 6.614.235 5.528.704c-1.087.469-2.045 1.119-2.875 1.949-.83.83-1.48 1.787-1.95 2.87C.236 6.606 0 7.765 0 9c0 1.235.236 2.394.708 3.477.473 1.083 1.122 2.038 1.95 2.866.827.827 1.783 1.476 2.87 1.949C6.614 17.764 7.772 18 9 18zm-.981-4.694c-.161 0-.308-.036-.44-.107-.133-.07-.258-.184-.375-.338l-2.167-2.648c-.08-.093-.139-.19-.176-.292-.037-.102-.055-.205-.055-.31 0-.21.074-.39.222-.542.148-.15.327-.226.537-.226.13 0 .25.026.36.078.112.053.22.15.325.292l1.731 2.213 3.676-5.889c.18-.284.405-.426.676-.426.204 0 .388.065.551.195.164.13.246.302.246.518 0 .105-.024.208-.07.31-.046.102-.1.2-.162.292L8.796 12.86c-.098.148-.213.26-.342.333-.13.075-.275.112-.435.112z" transform="translate(-155 -1640) translate(150 1243) translate(0 116) translate(5 281)"/>
                    </g>
                </g>
            </g>
        </g>
    </g>
</svg>
